<svg width="328" height="296" viewBox="0 0 328 296" fill="none" xmlns="http://www.w3.org/2000/svg">
<path d="M276.125 82.4891C283.096 91.9316 287.623 103.348 289.061 115.013C291.823 137.419 284.301 160.268 271.634 178.955C259.339 197.091 241.984 212.005 221.624 220.1C203.684 227.231 181.859 228.539 162.643 229.697C141.357 230.979 117.473 221.214 98.8459 211.814C79.8655 202.237 59.9937 191.767 44.1788 177.403C21.0123 156.363 5.24732 126.507 4.1268 95.2332C2.17877 40.8175 47.7103 -7.54495 103.37 0.980862C114.969 2.75739 129.922 5.44219 139.716 12.243C151.359 20.3274 162.469 29.9768 172.681 39.7254C179.79 46.5116 189.749 51.1514 199.178 53.6008C216.253 58.0368 234.766 56.2587 251.159 62.7757C261.217 66.7741 269.708 73.7941 276.125 82.4891Z" fill="#F3E7DE"/>
<path d="M313.836 234.966H0" stroke="#8E8685" stroke-width="2" stroke-miterlimit="10"/>
<path d="M137.779 15.6838C138.489 15.5276 139.173 15.3008 139.82 14.9716C143.272 13.2151 147.192 12.5329 151.055 12.4875C158.995 12.3937 167.041 15.3154 172.741 20.9118C181.725 29.7337 184.184 44.5028 178.544 55.7596C177.095 58.652 175.128 61.4821 175.062 64.7168C174.963 69.5542 178.455 73.4464 180.243 77.6563C182.184 82.2291 184.923 86.6727 185.495 91.7447C186.055 96.7021 184.181 102.286 179.763 104.603C178.471 105.28 177.02 105.656 175.821 106.486C174.471 107.42 173.559 108.844 172.481 110.082C167.398 115.926 159.978 115.514 152.99 116.596C147.727 117.411 143.441 114.454 138.261 114.228C136.281 114.142 134.297 114.49 132.319 114.357C128.198 114.082 124.441 111.723 121.633 108.695C119.148 106.015 117.62 102.865 115.666 99.8314C114.087 97.3781 111.445 96.0122 110.11 93.2805C108.728 90.4527 108.669 87.1388 109.201 84.0364C109.732 80.934 110.815 77.957 111.637 74.9184C113.574 67.7654 114.043 60.1624 112.681 52.8617C112.115 49.8278 110.547 47.1614 109.998 44.2459C109.374 40.9328 109.985 36.8968 110.82 33.676C112.955 25.4424 118.86 18.3232 127.403 16.3713C130.691 15.6199 134.512 16.4013 137.779 15.6838Z" fill="#554856"/>
<path d="M165.268 85.5024C162.017 96.5708 163.426 108.929 169.085 118.981C165.604 123.26 159.606 124.57 154.14 125.311C143.367 126.772 131.865 125.865 122.552 120.255C127.087 117.147 130.122 110.297 130.108 104.8C130.069 89.6515 128.854 90.9974 128.686 85.5024C139.311 87.5305 155.67 90.4867 165.268 85.5024Z" fill="#D2A492"/>
<path d="M171.574 47.2735C171.574 47.2735 175.885 100.353 147.055 100.353C117.014 100.353 119.572 47.2735 119.572 47.2735C119.572 47.2735 123.832 33.2627 145.683 33.2627C167.533 33.2627 171.574 47.2735 171.574 47.2735Z" fill="#D2A492"/>
<path d="M167.211 74.1167C169.57 74.8112 172.221 73.7514 173.824 71.8864C175.428 70.0215 176.091 67.492 176.117 65.0326C176.134 63.5198 175.837 61.8394 174.638 60.9173C173.842 60.3051 172.771 60.1429 171.775 60.2628C170.778 60.3828 169.831 60.7574 168.898 61.128C168.331 65.0072 167.777 70.2368 167.211 74.1167Z" fill="#D2A492"/>
<path d="M125.744 74.1167C123.384 74.8112 120.734 73.7514 119.131 71.8864C117.527 70.0215 116.864 67.492 116.837 65.0326C116.821 63.5198 117.118 61.8394 118.317 60.9173C119.113 60.3051 120.184 60.1429 121.18 60.2628C122.177 60.3828 123.124 60.7574 124.057 61.128C124.623 65.0072 125.178 70.2368 125.744 74.1167Z" fill="#D2A492"/>
<path d="M116.682 53.2952C125.838 50.7104 133.638 43.7143 137.201 34.8931C138.485 36.1513 140.144 37.1449 141.823 37.7879C145.832 39.3229 150.029 40.295 154.138 41.5324C158.248 42.7699 162.334 44.3041 165.812 46.8182C169.29 49.3323 172.138 52.9353 173.012 57.1375C174.725 51.5256 173.619 44.2695 170.196 39.5044C166.773 34.7393 161.494 31.4816 155.843 29.9058C150.192 28.33 144.181 28.35 138.39 29.2874C132.299 30.2734 126.174 32.3798 121.712 36.6404C117.25 40.901 114.602 47.4865 116.682 53.2952Z" fill="#554856"/>
<path d="M125.673 118.925C139.325 123.615 154.678 123.156 168.025 117.657C166.316 158.658 161.786 199.259 154.215 239.592C148.015 238.075 141.649 237.241 135.267 237.111C135.413 237.114 135.252 217.262 135.213 215.46C135.06 208.355 133.954 201.543 133.002 194.504C131.043 180.024 129.618 165.471 128.73 150.885C128.563 148.115 128.361 145.338 128.283 142.564C128.222 140.425 128.703 138.5 128.433 136.362C127.696 130.531 126.661 124.718 125.673 118.925Z" fill="white"/>
<path d="M167.452 123.525C165.453 134.385 160.928 144.727 154.34 153.587C152.465 156.108 150.417 158.498 148.225 160.749C147.827 161.158 148.453 161.784 148.851 161.375C156.632 153.384 162.513 143.603 165.967 132.999C166.951 129.975 167.731 126.887 168.306 123.76C168.408 123.203 167.555 122.964 167.452 123.525Z" fill="#957E8B"/>
<path d="M147.91 160.619C140.942 155.527 135.242 148.758 131.359 141.054C130.257 138.869 129.309 136.61 128.514 134.295C128.33 133.759 127.474 133.99 127.66 134.531C130.531 142.893 135.414 150.529 141.798 156.646C143.578 158.351 145.473 159.929 147.463 161.383C147.924 161.72 148.366 160.952 147.91 160.619Z" fill="#957E8B"/>
<path d="M149.253 162.048C149.253 162.045 149.251 162.041 149.25 162.038C149.133 161.498 149.017 160.957 148.924 160.413C148.862 160.047 148.478 160.026 148.245 160.208C147.995 160.108 147.713 160.14 147.498 160.389C147.342 160.569 147.268 160.826 147.183 161.045C147.08 161.311 146.985 161.581 146.898 161.852C146.729 162.378 146.591 162.914 146.485 163.456C146.313 164.333 146.075 165.399 146.419 166.263C146.775 167.155 147.761 167.472 148.607 167.051C149.506 166.604 149.742 165.591 149.703 164.659C149.741 163.775 149.516 162.879 149.253 162.048Z" fill="#E7CB86"/>
<path d="M137.167 201.705C135.288 185.646 133.408 169.586 131.529 153.526C130.667 146.149 130.492 138.795 129.821 131.396C129.481 127.653 129.239 123.899 129.175 120.141C129.115 116.563 129.202 113.176 129.552 109.626C125.684 114.114 118.859 116.009 113.433 117.771C107.592 119.667 101.585 121.272 95.5266 122.298C90.7708 123.104 85.5388 124.105 82.125 127.847C79.9716 130.207 78.5904 133.159 77.3545 136.105C67.7627 158.97 65.1018 184.159 64.8242 208.952C64.7442 216.109 64.8849 223.444 67.4359 230.133C70.1438 237.232 78.0405 247.761 86.6232 243.632C89.8956 242.057 93.3025 237.772 95.642 234.994C110.246 235.386 124.256 235.04 138.861 235.433C139.543 235.452 139.942 237.601 140.408 237.103C140.957 236.518 140.801 235.589 140.611 234.81C137.933 223.873 138.57 212.933 137.167 201.705Z" fill="black"/>
<path d="M208.524 131.386C208.154 146.129 207.783 160.877 206.874 175.6C206.386 183.506 205.745 191.402 204.863 199.274C204.423 203.207 203.924 207.134 203.354 211.052C202.991 213.549 203.119 217.478 201.428 219.544C199.696 221.659 195.691 222.605 193.277 223.634C189.729 225.149 186.146 226.583 182.533 227.937C175.451 230.59 168.254 232.932 160.966 234.953C159.494 235.361 157.858 235.742 156.496 235.05C154.231 233.9 154.203 230.728 154.498 228.204C155.532 219.372 156.566 210.538 157.598 201.705C159.477 185.646 161.357 169.586 163.236 153.526C164.099 146.149 165.158 138.795 165.83 131.396C166.17 127.653 166.411 123.899 166.475 120.141C166.536 116.563 165.563 113.176 165.213 109.626C169.081 114.114 175.906 116.009 181.332 117.771C187.38 119.735 193.562 121.285 199.822 122.403C202.853 122.944 206.322 122.685 207.777 125.398C208.581 126.9 208.566 129.682 208.524 131.386Z" fill="black"/>
<path d="M111.886 60.2061C112.233 61.0559 113.283 64.0183 113.404 64.4074C113.775 65.5926 113.67 66.5946 113.919 67.8105C114.429 70.2984 114.712 72.8256 115.005 75.3458C115.573 80.2309 116.166 85.2613 118.498 89.6742C119.957 92.4351 122.032 94.8215 123.654 97.4902C124.83 99.4267 125.788 101.598 125.975 103.88C126.098 105.376 126.575 108.582 125.532 109.804C124.766 110.701 123.301 110.278 122.298 109.657C119.074 107.659 116.8 104.386 115.346 100.882C113.892 97.3794 113.181 93.6202 112.48 89.8918C111.679 85.6358 110.879 81.3791 110.078 77.1231C109.439 73.7262 108.906 70.3123 109.382 66.8461C109.667 64.7743 110.656 61.8988 111.886 60.2061Z" fill="#C59886"/>
<path d="M116.474 56.5817C119.243 64.26 129.629 92.2892 132.392 99.7422C132.77 100.761 131.413 101.905 130.447 102.32L129.519 102.719C128.526 103.146 127.393 102.635 127.006 101.586L111.087 58.4282C110.714 57.4169 111.176 56.2779 112.129 55.8565L113.054 55.4481C114.055 55.0051 116.09 55.5173 116.474 56.5817Z" fill="#83707C"/>
<path d="M112.318 120.835C114.052 114.536 111.841 107.875 109.352 101.835C106.863 95.7946 104.009 89.5729 104.44 83.0536C104.752 78.3331 106.79 73.9625 109.329 70.0426C110.628 68.0361 112.068 66.1227 113.535 64.2377C114.188 63.3995 116.268 61.5014 116.556 63.6671C116.898 66.2465 115.972 68.8175 114.915 71.1954C113.857 73.5734 112.634 75.9421 112.33 78.5269C113.823 77.2049 116.016 76.8873 117.958 77.341C119.9 77.794 121.64 78.8476 123.344 79.8851C124.21 80.4126 125.203 81.2171 124.978 82.2061C124.81 82.9436 123.99 83.3651 123.234 83.3866C122.478 83.4081 121.749 83.1382 121.009 82.9821C119.098 82.5783 117.033 82.9621 115.396 84.0257C113.759 85.0893 112.568 86.8197 112.16 88.7293C116.632 86.2091 121.83 85.7761 126.747 87.248C127.288 87.4095 127.886 87.6557 128.08 88.1855C128.29 88.7585 127.896 89.4083 127.364 89.7075C126.832 90.0067 126.2 90.0497 125.593 90.1151C122.866 90.4081 120.204 91.2987 117.85 92.7061C115.82 93.9197 116.477 95.1978 117.101 97.4789C117.725 99.7599 119.504 101.536 121.364 102.996C123.224 104.457 125.262 105.746 126.762 107.574C129.119 110.447 129.873 114.372 129.596 118.079C129.319 121.786 128.11 125.35 126.912 128.868C123.639 128.481 120.47 127.816 117.365 126.709C115.911 126.191 114.428 125.557 113.421 124.387C113.038 123.942 112.734 123.429 112.529 122.879" fill="#D2A492"/>
<path d="M149.202 254.792C141.454 257.025 134.124 260.693 127.693 265.557C125.263 267.395 122.955 269.405 120.38 271.032C117.804 272.66 114.898 273.908 111.852 274.013C111.105 274.626 110.174 274.854 109.206 274.862C108.806 274.865 108.375 274.799 108.089 274.519C107.799 274.237 107.724 273.802 107.717 273.397C107.698 272.282 108.086 271.189 108.648 270.226C109.209 269.261 109.94 268.409 110.666 267.562C109.35 269.061 107.37 270.941 105.845 272.229C105.143 272.823 104.227 273.427 103.371 273.092C102.919 272.915 102.592 272.495 102.437 272.035C102.281 271.575 102.278 271.078 102.322 270.594C102.464 269.049 103.091 267.552 104.093 266.368C103.635 266.555 102.95 266.329 102.878 265.84C102.504 263.301 103.732 260.812 105.114 258.651C108.086 254.002 111.965 249.936 116.467 246.745C124.179 241.281 131.822 237.321 141.132 235.695C143.085 241.705 146.484 249.087 149.202 254.792Z" fill="#D2A492"/>
<path d="M207.776 125.398C211.417 129.072 213.805 133.779 216.008 138.458C227.013 161.824 234.917 186.649 239.448 212.077C240.839 219.885 241.735 228.598 237.255 235.143C233.726 240.298 227.608 242.942 221.739 245.081C198.093 253.699 172.302 257.845 147.138 258.26C142.652 250.405 140.034 241.49 139.561 232.456C160.748 225.188 182.21 216.874 203.397 209.606C203.478 182.535 206.386 152.433 207.776 125.398Z" fill="black"/>
<path d="M112.053 209.051C121.323 182.28 127.117 154.478 129.194 126.225C124.97 122.778 116.568 117.74 107.217 114.905C102.059 133.445 93.5618 151.221 84.5161 168.207C79.0689 178.437 76.531 183.632 72.9318 194.649C69.3326 205.666 67.5306 217.441 69.2195 228.907C69.8109 232.926 70.8768 236.989 73.2686 240.272C75.6604 243.554 79.5972 245.935 83.6425 245.576C86.8933 245.288 89.745 243.341 92.2621 241.265C102.528 232.795 107.698 221.627 112.053 209.051Z" fill="black"/>
<path d="M135.096 51.9415C135.541 51.8662 136.005 51.7954 136.439 51.92C137.081 52.1038 137.559 52.7321 137.598 53.3981C137.637 54.0642 137.253 54.7294 136.672 55.0578C136.022 55.4246 135.23 55.38 134.485 55.3485C132.728 55.2731 130.966 55.3262 129.216 55.5069C128.324 55.5992 127.436 55.7238 126.554 55.8822C126.104 55.963 124.753 56.5005 124.351 56.2706C123.62 55.8522 124.753 54.9309 125.185 54.6087C126.338 53.7473 127.974 53.515 129.341 53.1659C131.24 52.6783 133.162 52.2699 135.096 51.9415Z" fill="#554856"/>
<path d="M156.065 51.9415C155.62 51.8662 155.156 51.7954 154.721 51.92C154.079 52.1038 153.602 52.7321 153.562 53.3981C153.523 54.0642 153.908 54.7294 154.489 55.0578C155.138 55.4246 155.931 55.38 156.675 55.3485C158.433 55.2731 160.195 55.3262 161.944 55.5069C162.836 55.5992 163.725 55.7238 164.607 55.8822C165.057 55.963 166.407 56.5005 166.809 56.2706C167.541 55.8522 166.407 54.9309 165.976 54.6087C164.823 53.7473 163.186 53.515 161.82 53.1659C159.92 52.6783 157.999 52.2699 156.065 51.9415Z" fill="#554856"/>
<path d="M165.722 61.1865C166.004 61.3396 166.306 61.5349 166.385 61.8464C166.479 62.2163 166.222 62.577 165.973 62.8662C164.907 64.1013 163.692 65.2079 162.362 66.1531C161.788 66.5607 161.028 66.9476 160.419 66.5961C159.956 66.3285 159.797 65.7432 159.728 65.2133C159.555 63.8805 159.518 60.9374 160.813 60.0599C162.03 59.2354 164.635 60.5982 165.722 61.1865Z" fill="white"/>
<path d="M137.502 61.1865C137.784 61.3396 138.086 61.5349 138.165 61.8464C138.259 62.2163 138.002 62.577 137.753 62.8662C136.687 64.1013 135.472 65.2079 134.142 66.1531C133.568 66.5607 132.808 66.9476 132.199 66.5961C131.736 66.3285 131.577 65.7432 131.508 65.2133C131.335 63.8805 131.298 60.9374 132.593 60.0599C133.81 59.2354 136.415 60.5982 137.502 61.1865Z" fill="white"/>
<path d="M165.95 61.9498C164.808 61.0554 163.339 60.5424 161.886 60.2856C162.665 61.1977 162.966 62.4636 162.824 63.6595C162.665 65.0322 161.957 66.3689 160.655 66.9626C159.336 67.5555 157.812 67.2548 156.661 66.4311C156.059 66.0059 155.545 65.466 155.182 64.8192C154.899 64.3324 154.774 63.8633 154.713 63.3049C154.633 62.6674 154.518 61.2508 155.147 60.7547C155.164 60.6486 155.217 60.5424 155.324 60.4625C156.909 59.2581 159.113 59.072 161.035 59.2758C163 59.4973 164.992 60.0995 166.577 61.3215C167.022 61.6668 166.393 62.2951 165.95 61.9498Z" fill="#554856"/>
<path d="M137.705 61.9498C136.554 61.0554 135.084 60.5424 133.632 60.2856C134.42 61.1977 134.721 62.4636 134.58 63.6595C134.42 65.0322 133.712 66.3689 132.402 66.9626C131.091 67.5555 129.559 67.2548 128.409 66.4311C127.816 66.0059 127.302 65.466 126.93 64.8192C126.655 64.3324 126.531 63.8633 126.461 63.3049C126.39 62.6674 126.274 61.2508 126.894 60.7547C126.921 60.6486 126.974 60.5424 127.071 60.4625C128.665 59.2581 130.861 59.072 132.791 59.2758C134.757 59.4973 136.75 60.0995 138.326 61.3215C138.776 61.6668 138.147 62.2951 137.705 61.9498Z" fill="#554856"/>
<path d="M145.776 78.6697C145.565 78.6697 145.352 78.6589 145.14 78.6351C144.23 78.532 143.452 78.169 142.952 77.6122C142.395 76.9924 142.123 76.081 142.188 75.0459C142.236 74.2584 142.461 73.4978 142.679 72.7625L142.759 72.4903C143.733 69.1418 144.251 65.6756 144.296 62.1872C144.297 62.0649 144.396 61.9688 144.517 61.9688H144.52C144.643 61.9703 144.74 62.071 144.738 62.1925C144.692 65.7218 144.169 69.2279 143.183 72.6149L143.102 72.8879C142.892 73.5993 142.674 74.336 142.628 75.0736C142.595 75.6034 142.636 76.5994 143.28 77.3169C143.708 77.7937 144.386 78.1052 145.188 78.196C145.932 78.279 146.695 78.1775 147.434 78.0806C147.552 78.0721 147.666 78.1506 147.683 78.2713C147.698 78.3921 147.614 78.5028 147.492 78.5197C146.931 78.5935 146.356 78.6697 145.776 78.6697Z" fill="#B17D69"/>
<path d="M153.253 83.7309C153.226 84.2093 153.076 84.6784 152.926 85.1298C152.651 86.0066 152.439 86.9095 152.023 87.7331C151.385 88.9905 150.367 90.1503 149.012 90.6463C147.621 91.1685 146.09 90.9563 144.753 90.3718C143.372 89.7611 142.149 88.7598 141.158 87.6177C140.379 86.7233 139.732 85.652 139.538 84.4746C139.485 84.2093 139.467 83.9432 139.467 83.6778C139.467 83.4564 139.609 83.3241 139.785 83.2795C139.865 83.0934 140.042 82.9519 140.29 82.9872C142.45 83.3679 144.602 83.6602 146.807 83.5717C147.896 83.5279 148.976 83.4125 150.056 83.3064C150.906 83.2179 151.8 83.1203 152.562 82.7134C152.809 82.5804 153.137 82.6865 153.208 82.9788C153.271 83.2264 153.289 83.4833 153.253 83.7309Z" fill="#B17D69"/>
<path d="M153.253 83.7309C151.562 85.7051 148.87 86.688 146.267 86.6264C143.974 86.5734 141.796 85.7766 139.83 84.643C139.732 84.59 139.635 84.5277 139.538 84.4746C139.485 84.2093 139.467 83.9432 139.467 83.6778C139.467 83.4564 139.609 83.3241 139.785 83.2795C139.865 83.0934 140.042 82.9519 140.29 82.9872C142.45 83.3679 144.602 83.6602 146.807 83.5717C147.896 83.5279 148.976 83.4125 150.056 83.3064C150.906 83.2179 151.8 83.1203 152.562 82.7134C152.809 82.5804 153.137 82.6865 153.208 82.9788C153.271 83.2264 153.289 83.4833 153.253 83.7309Z" fill="white"/>
<path d="M165.794 71.1885C166.418 71.4154 167.047 71.7584 167.361 72.3429C167.876 73.3011 167.301 74.5593 166.382 75.1415C165.463 75.7237 164.316 75.7891 163.228 75.7744C162.446 75.7637 161.654 75.7183 160.915 75.466C160.175 75.2138 159.486 74.7308 159.135 74.0325C157.328 70.4356 164.044 70.5502 165.794 71.1885Z" fill="#C5846C"/>
<path d="M131.075 71.1885C131.699 71.4154 132.328 71.7584 132.642 72.3429C133.157 73.3011 132.582 74.5593 131.663 75.1415C130.744 75.7237 129.597 75.7891 128.509 75.7744C127.727 75.7637 126.934 75.7183 126.195 75.466C125.456 75.2138 124.766 74.7308 124.416 74.0325C122.609 70.4356 129.324 70.5502 131.075 71.1885Z" fill="#C5846C"/>
<path d="M174.335 68.0855C174.317 68.0855 174.299 68.0832 174.279 68.0786C174.161 68.0479 174.091 67.9263 174.121 67.8079C174.285 67.1834 174.471 66.4751 174.508 65.7776C174.548 65.0339 174.409 64.3725 174.105 63.8665C173.756 63.282 173.17 62.9021 172.577 62.8744C172.455 62.8682 172.361 62.7644 172.367 62.6429C172.373 62.5206 172.477 62.4199 172.598 62.4322C173.336 62.4668 174.059 62.929 174.485 63.6396C174.833 64.2218 174.995 64.9685 174.951 65.8022C174.91 66.5443 174.718 67.2757 174.549 67.921C174.523 68.0194 174.434 68.0855 174.335 68.0855Z" fill="#B17D69"/>
<path d="M147.313 100.575C147.227 100.575 147.14 100.574 147.053 100.574C140.794 100.507 136.419 98.1588 133.848 96.2C131.061 94.0751 129.774 91.9948 129.72 91.9071C129.657 91.8033 129.69 91.6664 129.795 91.6033C129.897 91.5395 130.035 91.5726 130.098 91.6771C130.149 91.7602 135.329 100.006 147.058 100.131C153.189 100.175 157.21 97.8942 159.505 95.9516C161.987 93.8505 163.03 91.7179 163.041 91.6964C163.095 91.5864 163.227 91.541 163.337 91.5925C163.447 91.6464 163.494 91.7787 163.441 91.8886C163.397 91.9794 162.344 94.1281 159.792 96.29C157.472 98.2526 153.433 100.575 147.313 100.575Z" fill="#B17D69"/>
<path d="M177.426 86.4309C176.507 84.6367 175.666 82.8025 175.325 80.8006C175.23 80.24 174.376 80.4776 174.472 81.036C175.48 86.9616 181.475 92.0997 178.935 98.4267C178.339 99.9118 177.292 101.163 175.918 101.984C175.43 102.277 175.874 103.043 176.365 102.749C178.894 101.235 180.294 98.4729 180.44 95.5728C180.609 92.242 178.895 89.2972 177.426 86.4309Z" fill="#362D30"/>
<path d="M174.237 93.3904C174.098 92.8382 173.243 93.072 173.383 93.6257C173.966 95.9314 173.999 98.4008 173.204 100.666C172.528 102.591 171.205 104.233 170.897 106.291C170.813 106.848 171.667 107.088 171.751 106.526C172.076 104.356 173.545 102.628 174.17 100.56C174.876 98.2208 174.832 95.7452 174.237 93.3904Z" fill="#362D30"/>
<path d="M167.166 102.405C166.76 103.953 166.389 105.574 166.529 107.185C166.55 107.423 166.717 107.628 166.972 107.628C167.196 107.628 167.436 107.425 167.415 107.185C167.281 105.646 167.632 104.119 168.021 102.64C168.165 102.088 167.312 101.853 167.166 102.405Z" fill="#362D30"/>
<path d="M167.48 48.1064C165.677 46.5452 163.823 45.0524 161.648 44.0396C159.331 42.9598 156.859 42.2754 154.397 41.6155C151.609 40.8688 148.875 40.0043 146.144 39.0699C144.647 38.5577 143.205 38.0855 141.859 37.2349C140.608 36.4443 139.446 35.5222 138.163 34.7793C137.669 34.4932 137.222 35.2577 137.716 35.5438C139.942 36.8335 141.836 38.55 144.311 39.3822C147.027 40.2943 149.722 41.2617 152.486 42.0185C154.928 42.6868 157.398 43.2836 159.763 44.1957C160.925 44.6433 162.059 45.1755 163.118 45.8323C164.096 46.4391 164.975 47.182 165.866 47.908C167.468 49.2131 168.965 50.6258 169.969 52.46C170.319 53.0999 170.686 53.8397 171.385 54.0482C171.565 54.102 171.787 54.1035 171.911 53.9628C172.087 53.7651 171.953 53.4575 171.811 53.2353C170.623 51.3711 169.15 49.5491 167.48 48.1064Z" fill="#362D30"/>
<path d="M169.75 45.4538C168.688 43.9334 168.038 42.1407 166.663 40.8479C165.265 39.5328 163.468 38.7399 161.728 37.9854C159.817 37.1572 157.858 36.4419 155.843 35.9113C153.815 35.3768 151.75 34.9953 149.706 34.5285C147.375 33.9963 145.069 33.3411 142.921 32.2728C142.413 32.0198 141.963 32.7835 142.474 33.0373C146.139 34.86 150.172 35.4837 154.119 36.3996C156.114 36.8626 158.067 37.4556 159.972 38.2085C161.783 38.9245 163.698 39.6897 165.281 40.8448C167.066 42.1476 167.763 44.1502 168.984 45.8998C169.308 46.3651 170.076 45.9229 169.75 45.4538Z" fill="#362D30"/>
<path d="M175.823 47.3894C175.146 44.3285 173.437 41.6091 171.115 39.5242C169.79 38.3329 168.293 37.347 166.711 36.531C166.206 36.2703 165.757 37.034 166.264 37.2955C168.876 38.6436 171.282 40.4794 172.946 42.9319C174.761 45.6075 175.56 48.8814 175.228 52.0953C175.024 54.071 174.389 55.9783 173.698 57.8302C173.499 58.3647 174.354 58.5954 174.552 58.0655C175.847 54.5947 176.638 51.0755 175.823 47.3894Z" fill="#362D30"/>
<path d="M136.261 35.794C135.343 38.9095 133.767 41.8773 131.533 44.2506C130.355 45.5019 128.973 46.4763 127.575 47.4614C126.181 48.4428 124.739 49.3387 123.1 49.8417C121.494 50.3339 119.808 50.6715 118.469 51.7505C118.026 52.1081 118.655 52.731 119.095 52.3765C120.337 51.3752 122.01 51.1145 123.492 50.6469C125.144 50.1255 126.613 49.2172 128.021 48.2259C129.406 47.2507 130.791 46.2886 131.976 45.0681C133.116 43.893 134.099 42.5594 134.923 41.1451C135.858 39.5386 136.588 37.812 137.114 36.0293C137.276 35.4818 136.422 35.2472 136.261 35.794Z" fill="#362D30"/>
<path d="M133.131 33.0395C132.713 35.502 131.095 37.5146 129.223 39.0804C127.347 40.6501 125.122 41.866 122.798 42.622C122.258 42.7973 122.489 43.6525 123.033 43.4756C125.51 42.6704 127.851 41.3784 129.849 39.7072C131.824 38.0553 133.544 35.8719 133.984 33.2756C134.079 32.7172 133.226 32.4781 133.131 33.0395Z" fill="#362D30"/>
<path d="M136.85 18.1413C136.716 17.5875 135.862 17.8221 135.996 18.3766C136.955 22.3457 138.179 26.8624 136.792 30.8723C136.605 31.4122 137.461 31.6437 137.646 31.1076C139.085 26.9486 137.844 22.2596 136.85 18.1413Z" fill="#362D30"/>
<path d="M175.53 31.2977C173.569 27.0647 170.771 23.1502 166.82 20.5616C162.739 17.8875 157.691 16.274 152.851 15.8111C149.821 15.5211 146.801 15.8611 143.864 16.6386C143.314 16.7847 143.548 17.6384 144.1 17.4922C146.612 16.827 149.179 16.484 151.779 16.617C154.308 16.747 156.81 17.2892 159.221 18.0475C161.443 18.7458 163.612 19.651 165.613 20.8492C167.583 22.0289 169.293 23.5571 170.783 25.3005C172.436 27.2339 173.699 29.4435 174.765 31.7437C175.005 32.2605 175.768 31.8114 175.53 31.2977Z" fill="#362D30"/>
<path d="M174.602 36.867C173.197 34.2691 171.692 31.7612 169.493 29.7486C169.073 29.3648 168.445 29.9893 168.867 30.3746C171.013 32.3388 172.465 34.7782 173.837 37.3138C174.108 37.8153 174.873 37.3692 174.602 36.867Z" fill="#362D30"/>
<path d="M116.621 95.0283C116.708 97.2632 117.874 99.3351 119.358 101.009C120.841 102.682 122.645 104.034 124.327 105.507C126.011 106.98 127.614 108.629 128.526 110.671C129.842 113.619 129.565 117.001 129.263 120.215" stroke="#B17D69" stroke-width="0.5" stroke-miterlimit="10" stroke-linecap="round"/>
<path d="M116.346 63.3921C116.819 65.9431 115.941 68.5433 114.894 70.9174C113.846 73.2915 112.599 75.6402 112.275 78.2142" stroke="#B17D69" stroke-width="0.5" stroke-miterlimit="10" stroke-linecap="round"/>
<path d="M112.475 87.8536C113.399 85.5118 115.557 83.6984 118.023 83.1916C119.946 82.7971 121.933 83.1562 123.863 83.5161" stroke="#B17D69" stroke-width="0.5" stroke-miterlimit="10" stroke-linecap="round"/>
<path d="M117.014 93.36C120.064 91.3874 123.571 90.1276 127.177 89.7085" stroke="#B17D69" stroke-width="0.5" stroke-miterlimit="10" stroke-linecap="round"/>
<path d="M112.211 273.511C115.081 269.604 118.42 266.04 122.131 262.92" stroke="#B17D69" stroke-width="0.5" stroke-miterlimit="10" stroke-linecap="round"/>
<path d="M110.955 267.174C113.724 264.017 116.685 261.028 119.816 258.229" stroke="#B17D69" stroke-width="0.5" stroke-miterlimit="10" stroke-linecap="round"/>
<path d="M104.492 266.087C108.223 261.108 112.559 256.585 117.375 252.646" stroke="#B17D69" stroke-width="0.5" stroke-miterlimit="10" stroke-linecap="round"/>
<path d="M188.355 138.221C187.846 136.797 186.91 135.555 185.955 134.401C184.949 133.183 183.841 132.055 182.817 130.853C181.565 129.385 180.356 127.876 179.12 126.394C176.498 123.25 173.889 120.084 171.607 116.68C171.047 115.846 170.509 114.997 169.994 114.134C169.702 113.646 168.936 114.09 169.23 114.581C171.283 118.015 173.716 121.199 176.242 124.296C178.584 127.168 180.905 130.091 183.397 132.834C185.342 134.974 187.969 137.458 187.751 140.591C187.633 142.296 187.047 143.966 186.454 145.556C185.861 147.15 185.216 148.719 184.666 150.329C181.967 158.227 179.744 166.276 177.409 174.287C175.08 182.284 172.623 190.25 169.51 197.983C166.476 205.514 164.177 213.311 161.781 221.061C161.492 221.996 161.201 222.932 160.908 223.866C160.736 224.411 161.591 224.644 161.761 224.101C164.215 216.292 166.47 208.412 169.373 200.753C170.842 196.876 172.397 193.042 173.733 189.114C175.091 185.119 176.331 181.084 177.526 177.036C179.92 168.932 182.137 160.773 184.787 152.746C185.362 151.004 185.955 149.271 186.626 147.562C187.27 145.92 187.928 144.269 188.329 142.547C188.657 141.139 188.852 139.613 188.355 138.221Z" fill="white"/>
<path d="M134.539 229.569C132.9 224.427 131.383 219.262 129.435 214.225C127.52 209.279 125.384 204.423 123.383 199.512C122.254 196.742 121.17 193.953 120.192 191.126C120.007 190.591 119.152 190.821 119.338 191.362C122.802 201.369 127.612 210.857 130.905 220.928C131.869 223.875 132.743 226.851 133.685 229.805C133.858 230.345 134.713 230.114 134.539 229.569Z" fill="white"/>
<path d="M207.937 210.129C204.641 211.375 201.238 212.295 197.9 213.414C194.486 214.559 191.081 215.728 187.656 216.841C184.217 217.958 180.777 219.074 177.369 220.283C174.017 221.473 170.572 222.356 167.202 223.489C163.431 224.757 159.753 226.272 155.883 227.235C155.33 227.371 155.565 228.226 156.119 228.088C159.57 227.23 162.891 225.958 166.234 224.762C169.578 223.566 173.029 222.707 176.39 221.564C179.81 220.399 183.219 219.214 186.654 218.097C190.087 216.98 193.524 215.872 196.931 214.682C200.656 213.381 204.48 212.379 208.172 210.983C208.7 210.784 208.471 209.928 207.937 210.129Z" fill="white"/>
<path d="M207.065 128.008C205.893 136.304 204.965 144.633 204.288 152.983C204.242 153.551 205.128 153.548 205.173 152.983C205.844 144.711 206.758 136.46 207.919 128.243C207.998 127.686 207.145 127.445 207.065 128.008Z" fill="white"/>
<path d="M203.659 161.81C203.094 174.395 202.646 186.986 202.319 199.579C202.227 203.114 202.145 206.65 202.072 210.185C202.06 210.755 202.945 210.755 202.957 210.185C203.218 197.59 203.596 184.998 204.096 172.409C204.236 168.876 204.386 165.342 204.544 161.81C204.57 161.24 203.685 161.241 203.659 161.81Z" fill="white"/>
<path d="M210.328 197.458C209.553 201.149 208.232 204.693 206.395 207.987C206.117 208.485 206.882 208.932 207.159 208.433C209.032 205.077 210.392 201.455 211.181 197.693C211.298 197.137 210.445 196.9 210.328 197.458Z" fill="white"/>
<path d="M217.138 205.427C214.715 205.973 212.386 206.898 210.246 208.158C209.755 208.447 210.201 209.213 210.693 208.923C212.772 207.699 215.02 206.812 217.374 206.281C217.929 206.155 217.694 205.301 217.138 205.427Z" fill="white"/>
<path d="M129.203 129.599C128.123 136.816 127.041 144.032 125.859 151.234C124.673 158.468 123.387 165.688 121.902 172.868C120.43 179.995 118.761 187.083 116.803 194.093C114.846 201.096 112.598 208.021 109.978 214.806C107.613 220.931 104.861 227.116 100.418 232.044C99.8789 232.641 99.3159 233.216 98.7322 233.771C98.3185 234.165 98.9452 234.79 99.3582 234.397C104.131 229.859 107.203 223.937 109.687 217.917C112.444 211.237 114.741 204.356 116.771 197.423C118.835 190.375 120.591 183.238 122.134 176.058C123.681 168.858 125.015 161.614 126.235 154.351C127.457 147.085 128.563 139.799 129.656 132.512C129.79 131.62 129.924 130.727 130.058 129.835C130.141 129.278 129.288 129.037 129.203 129.599Z" fill="white"/>
<path d="M103.869 122.459C101.448 130.37 98.7075 138.183 95.6505 145.871C92.5827 153.587 89.195 161.176 85.5035 168.615C83.4278 172.797 81.2545 176.93 78.9896 181.013C78.7127 181.511 79.4772 181.959 79.754 181.46C83.8016 174.165 87.5515 166.706 90.9877 159.104C94.397 151.561 97.5009 143.88 100.286 136.086C101.869 131.657 103.347 127.191 104.724 122.694C104.891 122.148 104.036 121.915 103.869 122.459Z" fill="white"/>
<path d="M75.6442 185.987C73.5216 189.425 72.3111 193.352 72.1111 197.386C72.0827 197.956 72.9686 197.954 72.9963 197.386C73.1878 193.506 74.3676 189.739 76.4079 186.434C76.7086 185.948 75.9434 185.503 75.6442 185.987Z" fill="white"/>
<path d="M79.2534 200.127C78.229 196.571 78.1137 192.819 78.9312 189.21C79.0573 188.655 78.2036 188.418 78.0775 188.975C77.2246 192.736 77.3308 196.655 78.3998 200.362C78.5566 200.909 79.4118 200.677 79.2534 200.127Z" fill="white"/>
<path d="M174.262 72.165C173.862 71.3652 173.057 70.8291 172.263 70.4746C172.045 70.3777 171.787 70.4115 171.657 70.6338C171.546 70.8222 171.596 71.1414 171.816 71.2398C172.404 71.5021 173.023 71.8497 173.38 72.4057C173.806 73.0694 173.681 73.8892 173.378 74.5798C173.107 75.1997 172.654 75.775 172.026 76.0595C171.458 76.3171 170.699 76.3164 170.192 75.9188C170.004 75.7711 169.749 75.735 169.566 75.9188C169.413 76.0718 169.377 76.3964 169.566 76.5448C170.306 77.1254 171.289 77.2754 172.177 76.9485C173.047 76.6294 173.723 75.9195 174.113 75.0905C174.543 74.1753 174.732 73.1032 174.262 72.165Z" fill="#E7CB86"/>
<path d="M42.8575 222.959L36.8611 260.87C36.8611 260.87 29.5112 265.319 17.5192 260.87L14.0377 222.959C14.0377 222.959 26.9971 227.021 42.8575 222.959Z" fill="#957E8B"/>
<path d="M28.4476 225.888C36.4059 225.888 42.8575 224.576 42.8575 222.959C42.8575 221.341 36.4059 220.029 28.4476 220.029C20.4892 220.029 14.0377 221.341 14.0377 222.959C14.0377 224.576 20.4892 225.888 28.4476 225.888Z" fill="#7B6674"/>
<path d="M41.6416 202.616L37.5886 224.042C36.4812 224.219 35.3968 224.357 34.3432 224.465C35.3507 218.051 37.7809 201.916 37.7809 201.916L41.6416 202.616Z" fill="#B5A6AF"/>
<path d="M25.3068 224.688C23.6379 224.604 22.1152 224.457 20.7616 224.288L16.0473 204.139L16.0704 203.747L16.3242 199.278L16.5087 195.956L18.3852 198.994L20.8386 202.97L20.8847 203.185L25.3068 224.688Z" fill="black"/>
<path d="M20.8848 203.185C19.8927 203.601 18.3084 203.97 18.0008 204.024C17.2702 204.154 16.5703 204.185 16.0704 203.747L16.3242 199.278L16.5088 195.956L18.3853 198.994L20.8386 202.97L20.8848 203.185Z" fill="#F3E7DE"/>
<path d="M18.3852 198.994C17.7469 199.209 17.0086 199.309 16.3242 199.278L16.5087 195.956L18.3852 198.994Z" fill="#7B6674"/>
<path d="M33.928 195.763L33.9049 196.263L32.5206 226.234C31.1363 226.334 29.8058 226.372 28.5292 226.38L29.2444 195.587L29.2521 195.41L30.6518 190.888L31.7054 187.465L32.8974 191.911L33.928 195.763Z" fill="#E7CB86"/>
<path d="M33.9279 195.763L33.9048 196.263C33.8356 196.286 33.7741 196.302 33.7049 196.317C32.259 196.64 30.3518 196.471 29.2443 195.587L29.252 195.41L30.6517 190.888L31.7053 187.465L32.8974 191.911L33.9279 195.763Z" fill="#F3E7DE"/>
<path d="M32.8975 191.911C32.5053 192.103 31.9516 191.972 31.1902 191.38C31.0056 191.234 30.8287 191.072 30.6519 190.888L31.7055 187.465L32.8975 191.911Z" fill="#7B6674"/>
<path d="M42.8568 222.957L36.8581 260.872C36.8581 260.872 29.5136 265.317 17.5162 260.872L14.04 222.957C14.04 222.957 16.5702 223.749 20.7616 224.287C22.1152 224.457 23.6379 224.603 25.3068 224.687C26.3296 224.734 27.4063 224.764 28.5292 224.764C29.8058 224.757 31.1363 224.718 32.5206 224.618C33.1205 224.58 33.728 224.526 34.3433 224.464C35.3969 224.357 36.4813 224.218 37.5887 224.041C39.296 223.772 41.0572 223.418 42.8568 222.957Z" fill="#C88276"/>
<path d="M325.2 227.8C323.759 224.63 239.889 228.377 237.007 230.683C235.498 231.89 226.094 249.442 217.472 265.898C201.618 266.196 167.13 263.978 153.545 264.595C153.545 264.595 153.853 268.021 153.545 268.44C152.272 270.17 199.838 294.289 202.422 294.956C202.93 295.515 204.225 295.53 204.902 295.611C207.628 295.937 210.399 295.96 213.141 295.988C217.241 296.029 221.341 295.962 225.44 295.862C230.334 295.742 235.227 295.565 240.118 295.354C245.245 295.133 250.371 294.873 255.495 294.582C260.296 294.308 265.095 294.006 269.891 293.665C273.805 293.387 277.719 293.086 281.626 292.723C283.075 292.588 284.524 292.445 285.969 292.28C287.723 292.079 289.313 292.046 290.156 290.156C290.797 288.719 291.011 287.045 291.483 285.532C291.847 284.363 292.277 283.217 292.743 282.085C294.547 277.704 296.841 273.526 299.223 269.437C301.965 264.729 304.891 260.13 307.875 255.574C310.723 251.225 313.636 246.92 316.534 242.606C318.744 239.318 320.98 236.036 323.031 232.645C323.659 231.608 324.291 230.557 324.792 229.452C324.978 229.042 325.414 228.27 325.2 227.8Z" fill="#A4919C"/>
<path d="M237.872 261.711C237.872 261.711 154.818 262.864 153.545 264.593C152.272 266.323 199.838 290.442 202.422 291.109C205.005 291.776 237.872 261.711 237.872 261.711Z" fill="#B5A6AF"/>
<path d="M222.523 268.978C221.79 269.161 179.585 269.344 178.851 270.629C178.118 271.913 210.78 286.409 210.78 286.409L222.523 268.978Z" fill="#C8B6C0"/>
<path d="M202.422 291.109C202.422 291.109 234.125 229.143 237.008 226.837C239.89 224.532 326.067 220.785 327.508 223.955C330.036 229.516 290.649 287.632 290.616 287.651C287.445 289.38 205.303 294.28 202.422 291.109Z" fill="#B5A6AF"/>
<path d="M266.631 260.241C268.515 260.212 270.312 259.442 271.944 258.502C273.478 257.619 274.953 256.536 275.899 255.04C276.845 253.544 277.175 251.566 276.376 249.987C273.82 244.936 266.291 248.568 263.159 250.997C259.089 254.153 261.453 260.317 266.631 260.241Z" fill="#C8B6C0"/>
<path d="M216.648 263.308C212.751 270.12 209.061 277.051 205.589 284.089C204.604 286.084 203.638 288.088 202.688 290.1C202.479 290.545 203.141 290.936 203.352 290.488C206.703 283.391 210.268 276.396 214.047 269.518C215.119 267.568 216.207 265.628 217.312 263.697C217.558 263.267 216.894 262.878 216.648 263.308Z" fill="#A4919C"/>
<path d="M202.633 283.206C196.341 280.528 190.242 277.404 184.397 273.854C182.721 272.836 181.065 271.781 179.431 270.695C179.018 270.421 178.632 271.087 179.043 271.36C184.738 275.145 190.7 278.524 196.877 281.457C198.649 282.298 200.439 283.102 202.245 283.87C202.695 284.062 203.088 283.4 202.633 283.206Z" fill="#A4919C"/>
<path d="M208.936 272.89C207.567 272.181 206.244 271.391 204.953 270.55C206.115 270.548 207.277 270.546 208.439 270.542C208.933 270.542 208.935 269.773 208.439 269.773L188.102 269.817L182.278 269.829C181.784 269.83 181.782 270.599 182.278 270.598L202.615 270.555L203.744 270.552C203.762 270.645 203.812 270.733 203.909 270.799C205.071 271.583 206.277 272.298 207.504 272.974C203.948 273.004 200.394 273.107 196.842 273.279C195.552 272.437 194.259 271.601 192.984 270.737C192.573 270.459 192.188 271.125 192.595 271.402C193.574 272.065 194.57 272.703 195.559 273.353C192.51 273.516 189.464 273.72 186.422 273.987C185.933 274.03 185.928 274.799 186.422 274.756C189.821 274.458 193.225 274.229 196.632 274.06C198.596 275.341 200.577 276.596 202.569 277.83C201.047 277.889 199.525 277.947 198.003 278.005C197.51 278.025 197.507 278.794 198.003 278.775C199.916 278.701 201.828 278.628 203.741 278.555C204.057 278.748 204.369 278.948 204.686 279.139C205.099 279.387 205.469 278.772 205.104 278.502C205.883 278.472 206.662 278.442 207.441 278.412C207.934 278.392 207.937 277.623 207.441 277.642C206.275 277.687 205.109 277.732 203.943 277.777C201.926 276.543 199.926 275.285 197.94 274.002C201.2 273.857 204.462 273.764 207.726 273.738C207.997 273.736 208.114 273.505 208.088 273.297C208.243 273.38 208.393 273.472 208.549 273.553C208.987 273.781 209.377 273.117 208.936 272.89Z" fill="#A4919C"/>
</svg>
