<svg width="30" height="30" viewBox="0 0 30 30" fill="none" xmlns="http://www.w3.org/2000/svg">
<g clip-path="url(#clip0_357_759)">
<path d="M29.7259 5.89989L24.1011 0.275064C23.833 0.00694779 23.4298 -0.0736747 23.0792 0.0725707C22.7286 0.218816 22.4999 0.558181 22.4999 0.936919V3.74933H10.3128C4.61669 3.74933 0.000579834 8.36544 0.000579834 14.0615C0.000579834 14.579 0.420567 14.999 0.93805 14.999H4.68793C5.20542 14.999 5.6254 14.579 5.6254 14.0615C5.6254 11.4722 7.72346 9.37416 10.3128 9.37416H22.4999V12.1866C22.4999 12.5653 22.7286 12.9084 23.0792 13.0528C23.4298 13.199 23.833 13.1184 24.1011 12.8503L29.7259 7.22547C30.0915 6.85986 30.0915 6.2655 29.7259 5.89989Z" fill="#396AFF"/>
<path d="M29.0621 14.999H25.3122C24.7947 14.999 24.3747 15.419 24.3747 15.9365C24.3747 18.5258 22.2766 20.6239 19.6874 20.6239H7.50023V17.8114C7.50023 17.4327 7.27149 17.0896 6.92088 16.9452C6.57026 16.8008 6.16903 16.8815 5.89903 17.1496L0.27421 22.7744C-0.0914034 23.14 -0.0914034 23.7344 0.27421 24.1L5.89903 29.7249C6.16715 29.993 6.57026 30.0736 6.92088 29.9273C7.27149 29.7811 7.50023 29.4399 7.50023 29.0611V26.2487H19.6874C25.3834 26.2487 29.9995 21.6326 29.9995 15.9365C29.9995 15.419 29.5795 14.999 29.0621 14.999Z" fill="#396AFF"/>
</g>
<defs>
<clipPath id="clip0_357_759">
<rect width="30" height="30" fill="white"/>
</clipPath>
</defs>
</svg>
