<svg width="30" height="30" viewBox="0 0 30 30" fill="none" xmlns="http://www.w3.org/2000/svg">
<path d="M15.879 15.8783V0C7.37387 0.446115 0.446847 7.37308 0.000732422 15.8783H15.879ZM12.3635 13.2416H10.6058V11.4839H12.3635V13.2416ZM7.09029 7.96842H8.84803V9.72616H7.09029V7.96842ZM11.4846 7.60451L12.7274 8.84729L7.96916 13.6056L6.72637 12.3628L11.4846 7.60451Z" fill="#FF82AC"/>
<path d="M15.879 17.6357H5.36609C5.79439 23.2368 10.278 27.7204 15.8791 28.1487V17.6357H15.879Z" fill="#FF82AC"/>
<path d="M17.6366 3.51562C17.6366 3.70441 17.6366 30.2064 17.6366 29.9989C24.496 29.5434 29.9994 23.6424 29.9994 16.6695C29.9994 9.69602 24.4977 3.96965 17.6366 3.51562ZM22.9098 15.8784C24.3637 15.8784 25.5464 17.0611 25.5464 18.515C25.5464 19.6593 24.8095 20.6257 23.7887 20.9897V22.9094H22.031V20.9897C21.0102 20.6257 20.2732 19.6593 20.2732 18.515H22.031C22.031 18.9999 22.4249 19.3939 22.9098 19.3939C23.3947 19.3939 23.7887 18.9999 23.7887 18.515C23.7887 18.0301 23.3947 17.6361 22.9098 17.6361C21.4559 17.6361 20.2732 16.4534 20.2732 14.9995C20.2732 13.8552 21.0102 12.8888 22.031 12.5248V10.6052H23.7887V12.5248C24.8095 12.8888 25.5464 13.8552 25.5464 14.9995H23.7887C23.7887 14.5146 23.3947 14.1207 22.9098 14.1207C22.4249 14.1207 22.031 14.5146 22.031 14.9995C22.031 15.4844 22.4249 15.8784 22.9098 15.8784Z" fill="#FF82AC"/>
</svg>
